<svg width="36" height="36" viewBox="0 0 36 36" fill="none" xmlns="http://www.w3.org/2000/svg">
<rect width="36" height="36" rx="18" fill="#00A5EC"/>
<path d="M9.84473 10.1826H12.9592V25.8174H9.84473V10.1826Z" fill="white"/>
<path d="M21.1776 10.193C22.629 10.193 23.7539 10.3666 24.5525 10.7138C25.3511 11.0611 26.0976 11.5819 26.792 12.2763L24.7087 14.3595C24.0143 13.5262 23.0421 13.1096 21.7922 13.1096C20.5422 13.1096 19.7437 13.4047 19.3964 13.995C19.0492 14.5852 19.0492 15.0887 19.3964 15.5053C19.7437 15.922 20.5422 16.2345 21.7922 16.4428C23.1116 16.5817 24.3095 17.0157 25.3858 17.7448C26.4621 18.474 27.0003 19.6371 27.0003 21.2343C27.0003 22.4842 26.424 23.5606 25.2712 24.4633C24.1254 25.3661 22.7887 25.8174 21.261 25.8174C19.8096 25.8174 18.5979 25.6091 17.6257 25.1925C16.6535 24.7758 15.8202 24.2203 15.1258 23.5259L17.209 21.4426C17.9034 22.2759 19.084 22.762 20.7506 22.9009C22.1394 22.9009 23.0039 22.6058 23.3442 22.0155C23.6914 21.4252 23.6914 20.835 23.3442 20.2447C23.0039 19.6545 22.1394 19.2899 20.7506 19.151C19.5006 19.0121 18.3548 18.6302 17.3132 18.0052C16.2716 17.3803 15.7508 16.3039 15.7508 14.7762C15.7508 13.3943 16.341 12.2867 17.5215 11.4534C18.709 10.6132 19.9277 10.193 21.1776 10.193Z" fill="white"/>
</svg>
