<svg width="46" height="62" viewBox="0 0 46 62" fill="none" xmlns="http://www.w3.org/2000/svg">
<path d="M27.9005 44.5962C38.0269 42.3331 45.3007 33.3016 45.3007 22.8481C45.3007 16.8953 42.9821 11.2977 38.7728 7.08834C34.5637 2.87918 28.9659 0.560547 23.0131 0.560547C17.0604 0.560547 11.4626 2.87918 7.25348 7.08834L7.43025 7.26512L7.25347 7.08834C3.04422 11.2977 0.725586 16.8953 0.725586 22.8481C0.725586 33.3016 7.99937 42.3332 18.1259 44.5963L22.7744 59.5777L23.0131 60.3472L23.2519 59.5777L27.9005 44.5962ZM23.0131 6.81372C31.8006 6.81372 38.95 13.9633 38.95 22.7506C38.95 31.5379 31.8006 38.6875 23.0131 38.6875C14.2257 38.6875 7.07627 31.5379 7.07627 22.7506C7.07627 13.9633 14.2257 6.81372 23.0131 6.81372Z" fill="#EC4242" stroke="white" stroke-width="0.5"/>
</svg>
