<svg width="14" height="14" viewBox="0 0 14 14" fill="none" xmlns="http://www.w3.org/2000/svg">
<path d="M6.71027 1.5208C6.73484 1.47007 6.77319 1.4273 6.82095 1.39737C6.8687 1.36744 6.92392 1.35156 6.98027 1.35156C7.03663 1.35156 7.09185 1.36744 7.1396 1.39737C7.18735 1.4273 7.22571 1.47007 7.25027 1.5208L8.90127 4.8208C8.92356 4.86329 8.95572 4.89981 8.99504 4.9273C9.03437 4.95479 9.07971 4.97245 9.12727 4.9788L12.8133 5.5098C12.8697 5.51711 12.923 5.54034 12.9667 5.57679C13.0105 5.61323 13.043 5.66138 13.0604 5.7156C13.0778 5.76982 13.0794 5.82788 13.0651 5.88299C13.0507 5.93809 13.0209 5.98797 12.9793 6.0268L10.3183 8.5818C10.2824 8.61603 10.2557 8.65861 10.2403 8.70572C10.2249 8.75284 10.2215 8.80302 10.2303 8.8518L10.8593 12.4658C10.8698 12.5215 10.8644 12.579 10.8436 12.6317C10.8228 12.6845 10.7875 12.7302 10.7418 12.7637C10.696 12.7972 10.6418 12.817 10.5852 12.8209C10.5287 12.8249 10.4722 12.8127 10.4223 12.7858L7.11927 11.0788C7.07637 11.0564 7.02868 11.0447 6.98027 11.0447C6.93186 11.0447 6.88417 11.0564 6.84127 11.0788L3.54127 12.7918C3.49137 12.8187 3.43488 12.8309 3.37833 12.827C3.32179 12.823 3.26751 12.8032 3.22178 12.7697C3.17605 12.7362 3.14075 12.6905 3.11995 12.6377C3.09915 12.585 3.09372 12.5275 3.10427 12.4718L3.72727 8.8558C3.73604 8.80702 3.7326 8.75684 3.71724 8.70972C3.70189 8.66261 3.6751 8.62003 3.63927 8.5858L0.979272 6.0308C0.937608 5.99197 0.907855 5.94209 0.89349 5.88699C0.879125 5.83188 0.880742 5.77382 0.898152 5.7196C0.915561 5.66538 0.948045 5.61723 0.991805 5.58079C1.03557 5.54434 1.08879 5.52111 1.14527 5.5138L4.82727 4.9788C4.87559 4.97198 4.92153 4.95349 4.96108 4.92491C5.00064 4.89633 5.03263 4.85853 5.05427 4.8148L6.71027 1.5208Z" fill="#FF8C00"/>
<path fill-rule="evenodd" clip-rule="evenodd" d="M6.16999 1.25087C6.24547 1.1006 6.36123 0.974274 6.50436 0.885999C6.64748 0.797725 6.81233 0.750977 6.98049 0.750977C7.14865 0.750977 7.31349 0.797725 7.45662 0.885999C7.59974 0.974274 7.71551 1.1006 7.79099 1.25087L9.37199 4.40787L12.902 4.91687C13.0701 4.94106 13.228 5.01194 13.3577 5.12146C13.4875 5.23097 13.5839 5.37471 13.636 5.53633C13.6881 5.69794 13.6938 5.87093 13.6524 6.03562C13.6111 6.2003 13.5243 6.35007 13.402 6.46787L10.857 8.91187L11.457 12.3669C11.4858 12.5333 11.4676 12.7045 11.4043 12.8611C11.3411 13.0177 11.2354 13.1536 11.0991 13.2533C10.9629 13.3531 10.8014 13.4129 10.633 13.4259C10.4646 13.4389 10.296 13.4046 10.146 13.3269L6.98099 11.6859L3.81599 13.3269C3.66602 13.4046 3.49734 13.4389 3.32894 13.4259C3.16054 13.4129 2.99911 13.3531 2.86284 13.2533C2.72657 13.1536 2.62087 13.0177 2.55764 12.8611C2.49442 12.7045 2.47618 12.5333 2.50499 12.3669L3.10499 8.91187L0.560988 6.46687C0.43869 6.34907 0.351916 6.1993 0.310541 6.03462C0.269165 5.86993 0.274851 5.69694 0.326951 5.53533C0.379051 5.37371 0.475472 5.22997 0.605241 5.12046C0.735011 5.01094 0.892916 4.94006 1.06099 4.91587L4.59099 4.40687L6.16999 1.25087ZM6.98099 2.33187L5.59999 5.08987C5.53444 5.22053 5.43829 5.33341 5.31972 5.4189C5.20115 5.50439 5.06366 5.55996 4.91899 5.58087L1.84599 6.02387L4.05999 8.14987C4.16698 8.25274 4.24709 8.38029 4.2933 8.52134C4.3395 8.6624 4.35038 8.81263 4.32499 8.95887L3.80099 11.9749L6.56299 10.5409C6.69197 10.4739 6.83516 10.4389 6.98049 10.4389C7.12582 10.4389 7.26901 10.4739 7.39799 10.5409L10.161 11.9749L9.63699 8.96187C9.61159 8.81563 9.62248 8.6654 9.66868 8.52434C9.71488 8.38329 9.795 8.25574 9.90199 8.15287L12.116 6.02687L9.04299 5.58087C8.89831 5.55996 8.76083 5.50439 8.64226 5.4189C8.52369 5.33341 8.42753 5.22053 8.36199 5.08987L6.98099 2.33187Z" fill="#FF8C00"/>
</svg>
